<?xml version="1.0" encoding="utf-8"?>
<!-- Generator: Adobe Illustrator 22.1.0, SVG Export Plug-In . SVG Version: 6.00 Build 0)  -->
<svg version="1.1" id="Capa_1" xmlns="http://www.w3.org/2000/svg" xmlns:xlink="http://www.w3.org/1999/xlink" x="0px" y="0px"
	 viewBox="0 0 500 500" style="enable-background:new 0 0 500 500;" xml:space="preserve">
<style type="text/css">
	.st0{fill:#7296FF;}
	.st1{fill:#FFFFFF;}
	.st2{fill:url(#SVGID_1_);}
</style>
<g>
	<path class="st0" d="M283.6,57.6c-3.9,0-7.7,0.1-11.5,0.3c0.4,0.6,3.2,4.6,9.2,7.6l59.8,21c0,0,46.3,13.5,70.1,57.5
		c0,0,19.9,29.5,16.8,71.8c0.6,8,0.4,16.6-0.9,25.8c0,0-5.3,47.1-40.8,77.5c0,0-12.8,13-35.8,22.8c10.7-0.3,22.8-2.8,35.2-9.6
		c0,0,31.5-13.6,41.4-58c0,0,1.1,9.3-1.2,22.3c0.4-1.5,0.8-3.1,1.2-4.7c0,0,4.4,38.1-23.3,68.7c0,0-18.2,23.1-50.2,30.5
		c0,0-31.1,7.9-59.4-4.9c0,0-26.2-14.1-61.6-0.8c0,0-28.5,11.8-39.2,34.1c0,0-8.2,12.2-10.3,31.1c0.5,4.7,1.5,9.7,3.1,14.9
		c0,0-1.1-0.4-3.1-1.4c30.1,15.8,64.3,24.7,100.7,24.7c119.5,0,216.4-96.6,216.4-215.7S403.1,57.6,283.6,57.6z"/>
	<path class="st0" d="M171.1,126.1c0,0,51.1-14.3,98,20.8c0,0,32.4,21.8,42.9,62c0,0,5,20.3,25.7,18.8c0,0,15.8-0.9,21.1-16.3
		c0,0,3.3-9,4.6-21.1c-0.1-1.2-0.3-2.3-0.5-3.5c0,0-3.3-31.6-30.1-52.5c0,0-11.1-9-24.6-12.9l-48.2-15.3c0,0-28-8-28-40.2
		c0,0,0-0.8,0.1-2.3c-32.8,8-62.6,23.4-87.6,44.4C152.2,110.9,162.7,116.1,171.1,126.1z"/>
	<path class="st1" d="M231.9,66c0,32.2,28,40.2,28,40.2l48.2,15.3c13.5,3.8,24.6,12.9,24.6,12.9c26.8,20.9,30.1,52.5,30.1,52.5
		c0.2,1.2,0.4,2.3,0.5,3.5c0.7-6.5,0.8-13.8-0.5-21.1c0,0-3.3-31.6-30.1-52.5c0,0-11.1-9-24.6-12.9l-48.2-15.3
		c0,0-22.1-6.3-27.1-30.3c-0.5,2.2-0.8,4.1-0.9,5.5C231.9,65.2,231.9,66,231.9,66z"/>
	<path class="st1" d="M353.6,373.5c0,0-31.1,7.9-59.4-4.9c0,0-26.2-14.1-61.6-0.8c0,0-28.5,11.8-39.2,34.1c0,0-13.5,20.1-10.3,48.7
		c2.1-18.9,10.3-31.1,10.3-31.1c10.7-22.3,39.2-34.1,39.2-34.1c35.5-13.4,61.6,0.8,61.6,0.8c28.4,12.7,59.4,4.9,59.4,4.9
		c32-7.4,50.2-30.5,50.2-30.5c27.7-30.6,23.3-68.7,23.3-68.7c-0.4,1.6-0.8,3.2-1.2,4.7c-2.3,13.4-8.1,30.9-22.2,46.4
		C403.8,343,385.6,366.1,353.6,373.5z"/>
	<path class="st1" d="M386.4,301.5c0,0-27.3,27.6-73.6,32.7c0,0,15.9,8.4,37.8,7.7c23-9.8,35.8-22.8,35.8-22.8
		c35.5-30.4,40.8-77.5,40.8-77.5c1.3-9.2,1.4-17.8,0.9-25.8c-0.2,2.7-0.5,5.4-0.9,8.2C427.1,224,421.9,271.1,386.4,301.5z"/>
	<linearGradient id="SVGID_1_" gradientUnits="userSpaceOnUse" x1="308.2114" y1="335.5721" x2="8.239" y2="30.6284">
		<stop  offset="0" style="stop-color:#000000"/>
		<stop  offset="0.1462" style="stop-color:#040404"/>
		<stop  offset="0.3059" style="stop-color:#121212"/>
		<stop  offset="0.472" style="stop-color:#272727"/>
		<stop  offset="0.6414" style="stop-color:#464646"/>
		<stop  offset="0.6766" style="stop-color:#4D4D4D"/>
		<stop  offset="0.7203" style="stop-color:#565656"/>
		<stop  offset="0.7931" style="stop-color:#707070"/>
		<stop  offset="0.886" style="stop-color:#999999"/>
		<stop  offset="0.9826" style="stop-color:#CCCCCC"/>
	</linearGradient>
	<path class="st2" d="M183,450.6c-3.2-28.6,10.3-48.7,10.3-48.7c10.7-22.3,39.2-34.1,39.2-34.1c35.5-13.4,61.6,0.8,61.6,0.8
		c28.4,12.7,59.4,4.9,59.4,4.9c32-7.4,50.2-30.5,50.2-30.5c14.1-15.5,19.9-33,22.2-46.4c2.2-13,1.2-22.3,1.2-22.3
		c-9.9,44.4-41.4,58-41.4,58c-12.4,6.7-24.5,9.2-35.2,9.6c-21.8,0.7-37.8-7.7-37.8-7.7c46.2-5,73.6-32.7,73.6-32.7
		c35.5-30.4,40.8-77.5,40.8-77.5c0.4-2.8,0.7-5.5,0.9-8.2c3-42.4-16.8-71.8-16.8-71.8c-23.7-44-70.1-57.5-70.1-57.5l-59.8-21
		c-6.1-3-8.8-7-9.2-7.6c0-0.1-0.1-0.1-0.1-0.1c-0.5-1-1-2-1.4-2.9c-3.2-7.7-2-13.9,0.5-18.5c3.6-6.6,9.8-9.9,9.8-9.9l-19.6-15.3
		c-30.4,10.8-29.5,37.3-29.5,37.3c0,3.6,0.4,6.9,1,9.9c4.9,24,27.1,30.3,27.1,30.3l48.2,15.3c13.5,3.8,24.6,12.9,24.6,12.9
		c26.8,20.9,30.1,52.5,30.1,52.5c1.3,7.3,1.2,14.6,0.5,21.1c-1.3,12.1-4.6,21.1-4.6,21.1c-5.4,15.5-21.1,16.3-21.1,16.3
		c-20.7,1.5-25.7-18.8-25.7-18.8c-10.5-40.2-42.9-62-42.9-62c-46.9-35.1-98-20.8-98-20.8c-8.4-10-18.9-15.2-26.7-17.9
		c-6.8-2.3-11.6-2.8-11.6-2.8c-43.2-9-72.2,19.4-72.2,19.4C10.9,167.5,2.4,230.9,2.4,230.9c-2.2,13.4-2.7,26-2.1,37.6
		c2,40.2,16.9,67.7,16.9,67.7c28.4,53.9,78,43.6,78,43.6c13.5,26.8,34.8,45.3,34.8,45.3c26,24.5,45.2,35.2,52.7,38.9
		c0.1,0.1,0.2,0.1,0.3,0.2c2,1,3.1,1.4,3.1,1.4C184.5,460.4,183.5,455.4,183,450.6z"/>
</g>
</svg>
