<?xml version="1.0" encoding="utf-8"?>
<!-- Generator: Adobe Illustrator 22.1.0, SVG Export Plug-In . SVG Version: 6.00 Build 0)  -->
<svg version="1.1" id="Capa_1" xmlns="http://www.w3.org/2000/svg" xmlns:xlink="http://www.w3.org/1999/xlink" x="0px" y="0px"
	 viewBox="0 0 500 500" style="enable-background:new 0 0 500 500;" xml:space="preserve">
<style type="text/css">
	.st0{fill:#7296FF;}
	.st1{fill:#FFFFFF;}
	.st2{fill:url(#SVGID_1_);}
</style>
<g>
	<path class="st0" d="M137.5,75.9c3.4,0.2,21.4,5.1,23.9,3.3c108.9-76.4,174.9,0.4,174.9,0.4c29.7-8.7,58.4-8.6,83.4,0.4
		C379.6,31.2,318.7,0,250.5,0c-69.8,0-131.9,32.7-172,83.5c1.4-0.5,2.7-1,4.1-1.4C100.2,76.4,119.1,74.8,137.5,75.9z"/>
	<path class="st0" d="M154.8,304.8c-42.9,7.3-85.8,0.6-115.4-26.2c15.3,55,51.4,101.2,99.4,129.7c-3.5-9.7-5.9-20.2-6.6-31.6
		C131.3,363.9,136.9,307.8,154.8,304.8z"/>
	<path class="st0" d="M186.2,338.2c-15.3,15.8-18.9,53-16.9,85.1c11.9,4.7,24.2,8.5,37,11.2c-7.1-9.9-13-20.6-17.3-31.9
		C183.5,387.7,172.6,352.3,186.2,338.2z"/>
	<path class="st0" d="M372.3,307.8c-32.1,5.4-65.9,32.3-62.1,68.1c2.2,21,15.6,35.9,32.4,42.8c58.3-27,102.7-78.9,119.6-142
		c-8.4,8-18.2,14.9-29.6,20.3C411.9,306.9,393.4,304.2,372.3,307.8z"/>
	<path class="st1" d="M157.8,118.9c0,0-81.3,72.7,3.1,146.1C160.9,265,115.3,197.9,157.8,118.9z"/>
	<path class="st1" d="M341.8,118.9c42.4,75.7-3.1,146.1-3.1,146.1C424.2,189.3,341.8,118.9,341.8,118.9z"/>
	<linearGradient id="SVGID_1_" gradientUnits="userSpaceOnUse" x1="310.834" y1="291.1346" x2="49.9318" y2="-127.8435">
		<stop  offset="0" style="stop-color:#000000"/>
		<stop  offset="0.2222" style="stop-color:#151515"/>
		<stop  offset="0.4776" style="stop-color:#333333"/>
		<stop  offset="0.5791" style="stop-color:#373737"/>
		<stop  offset="0.6833" style="stop-color:#434343"/>
		<stop  offset="0.7888" style="stop-color:#585858"/>
		<stop  offset="0.8944" style="stop-color:#757575"/>
		<stop  offset="1" style="stop-color:#999999"/>
	</linearGradient>
	<path class="st2" d="M446.3,328.6c0,0-13.5,33.9-15.9,38.6c-8.2,15.8-18.1,32.1-32,43.6c-16.3,13.3-38,15.1-55.7,7.8
		c-16.9-6.9-30.3-21.8-32.4-42.8c-3.7-35.7,30-62.6,62.1-68.1c21.1-3.6,39.6-0.9,60.3-10.8c11.4-5.5,21.2-12.4,29.6-20.3
		c36.5-34.7,44.4-90,21.7-136.7c-14.8-30.4-37.3-50.3-64.1-59.9c-25-9-53.7-9-83.4-0.4c0,0-66-76.8-174.9-0.4
		c-2.5,1.8-20.6-3.1-23.9-3.3c-18.4-1.2-37.3,0.5-54.9,6.1c-1.4,0.4-2.8,1-4.1,1.4c-63,22.9-90.9,95.2-66.1,155.7
		c6.6,16.2,15.9,29.2,27,39.3c29.5,26.8,72.4,33.5,115.4,26.2c-17.9,3-23.5,59.1-22.7,71.9c0.7,11.3,3.1,21.9,6.6,31.6
		c10.5,29.2,30.5,51.3,41.8,67.3c-5.2-7.4-9.8-28.4-11.3-52.3c-2-32.1,1.6-69.3,16.9-85.1c-13.6,14.1-2.8,49.5,2.8,64.4
		c4.2,11.3,10.1,22,17.3,31.9C240,481,302,509,358,497.4c69.8-14.5,134.1-97.7,126.1-169.6L446.3,328.6z M157.8,118.9
		c-42.4,78.9,3.1,146.1,3.1,146.1C76.4,191.6,157.8,118.9,157.8,118.9z M341.8,118.9c0,0,82.4,70.4-3.1,146.1
		C338.6,265,384.2,194.6,341.8,118.9z"/>
</g>
</svg>
