<?xml version="1.0" encoding="utf-8"?>
<!-- Generator: Adobe Illustrator 22.1.0, SVG Export Plug-In . SVG Version: 6.00 Build 0)  -->
<svg version="1.1" id="Capa_1" xmlns="http://www.w3.org/2000/svg" xmlns:xlink="http://www.w3.org/1999/xlink" x="0px" y="0px"
	 viewBox="0 0 500 500" style="enable-background:new 0 0 500 500;" xml:space="preserve">
<style type="text/css">
	.st0{fill:#7296FF;}
	.st1{fill:#FFFFFF;}
	.st2{fill:url(#SVGID_1_);}
</style>
<g>
	<g>
		<path class="st0" d="M129.7,161.9c-1.8,0-3.5,0-5.3,0.1c0.2,0.3,1.4,2.1,4.2,3.5l27.3,9.6c0,0,21.2,6.2,32,26.3
			c0,0,9.1,13.5,7.7,32.9c0.3,3.7,0.2,7.6-0.4,11.8c0,0-2.4,21.6-18.6,35.5c0,0-5.9,5.9-16.4,10.4c4.9-0.2,10.4-1.3,16.1-4.4
			c0,0,14.4-6.2,18.9-26.6c0,0,0.5,4.2-0.5,10.2c0.2-0.7,0.4-1.4,0.5-2.1c0,0,2,17.5-10.7,31.4c0,0-8.3,10.6-23,14
			c0,0-14.2,3.6-27.2-2.2c0,0-12-6.5-28.2-0.4c0,0-13,5.4-17.9,15.6c0,0-3.7,5.6-4.7,14.3c0.2,2.2,0.7,4.5,1.4,6.8
			c0,0-0.5-0.2-1.4-0.6c13.7,7.2,29.4,11.3,46,11.3c54.6,0,98.9-44.2,98.9-98.7S184.3,161.9,129.7,161.9z"/>
		<path class="st0" d="M78.2,193.3c0,0,23.4-6.5,44.8,9.5c0,0,14.8,10,19.6,28.4c0,0,2.3,9.3,11.7,8.6c0,0,7.2-0.4,9.7-7.5
			c0,0,1.5-4.1,2.1-9.6c-0.1-0.5-0.1-1.1-0.2-1.6c0,0-1.5-14.5-13.8-24c0,0-5.1-4.1-11.3-5.9l-22-7c0,0-12.8-3.6-12.8-18.4
			c0,0,0-0.4,0-1c-15,3.7-28.6,10.7-40.1,20.3C69.6,186.3,74.4,188.7,78.2,193.3z"/>
		<path class="st1" d="M106,165.8c0,14.7,12.8,18.4,12.8,18.4l22,7c6.2,1.7,11.3,5.9,11.3,5.9c12.2,9.6,13.8,24,13.8,24
			c0.1,0.5,0.2,1.1,0.2,1.6c0.3-3,0.4-6.3-0.2-9.7c0,0-1.5-14.5-13.8-24c0,0-5.1-4.1-11.3-5.9l-22-7c0,0-10.1-2.9-12.4-13.9
			c-0.2,1-0.4,1.9-0.4,2.5C106,165.4,106,165.8,106,165.8z"/>
		<path class="st1" d="M161.6,306.5c0,0-14.2,3.6-27.2-2.2c0,0-12-6.5-28.2-0.4c0,0-13,5.4-17.9,15.6c0,0-6.2,9.2-4.7,22.3
			c1-8.7,4.7-14.3,4.7-14.3c4.9-10.2,17.9-15.6,17.9-15.6c16.2-6.1,28.2,0.4,28.2,0.4c13,5.8,27.2,2.2,27.2,2.2
			c14.6-3.4,23-14,23-14c12.7-14,10.7-31.4,10.7-31.4c-0.2,0.7-0.3,1.4-0.5,2.1c-1,6.2-3.7,14.1-10.1,21.2
			C184.6,292.6,176.3,303.1,161.6,306.5z"/>
		<path class="st1" d="M176.6,273.6c0,0-12.5,12.7-33.6,15c0,0,7.3,3.8,17.3,3.5c10.5-4.5,16.4-10.4,16.4-10.4
			c16.2-13.9,18.6-35.5,18.6-35.5c0.6-4.2,0.7-8.2,0.4-11.8c-0.1,1.2-0.2,2.5-0.4,3.8C195.3,238.1,192.9,259.7,176.6,273.6z"/>
		<linearGradient id="SVGID_1_" gradientUnits="userSpaceOnUse" x1="135.4683" y1="283.5957" x2="-1.7284" y2="144.1253">
			<stop  offset="0" style="stop-color:#000000"/>
			<stop  offset="0.1462" style="stop-color:#040404"/>
			<stop  offset="0.3059" style="stop-color:#121212"/>
			<stop  offset="0.472" style="stop-color:#272727"/>
			<stop  offset="0.6414" style="stop-color:#464646"/>
			<stop  offset="0.6766" style="stop-color:#4D4D4D"/>
			<stop  offset="0.7203" style="stop-color:#565656"/>
			<stop  offset="0.7931" style="stop-color:#707070"/>
			<stop  offset="0.886" style="stop-color:#999999"/>
			<stop  offset="0.9826" style="stop-color:#CCCCCC"/>
		</linearGradient>
		<path class="st2" d="M83.6,341.8c-1.5-13.1,4.7-22.3,4.7-22.3c4.9-10.2,17.9-15.6,17.9-15.6c16.2-6.1,28.2,0.4,28.2,0.4
			c13,5.8,27.2,2.2,27.2,2.2c14.6-3.4,23-14,23-14c6.4-7.1,9.1-15.1,10.1-21.2c1-6,0.5-10.2,0.5-10.2c-4.5,20.3-18.9,26.6-18.9,26.6
			c-5.7,3.1-11.2,4.2-16.1,4.4c-10,0.3-17.3-3.5-17.3-3.5c21.1-2.3,33.6-15,33.6-15c16.2-13.9,18.6-35.5,18.6-35.5
			c0.2-1.3,0.3-2.5,0.4-3.8c1.4-19.4-7.7-32.9-7.7-32.9c-10.9-20.1-32-26.3-32-26.3l-27.3-9.6c-2.8-1.4-4-3.2-4.2-3.5c0,0,0,0,0,0
			c-0.2-0.5-0.4-0.9-0.6-1.3c-1.5-3.5-0.9-6.4,0.2-8.5c1.6-3,4.5-4.5,4.5-4.5l-9-7c-13.9,4.9-13.5,17.1-13.5,17.1
			c0,1.6,0.2,3.1,0.5,4.5c2.3,11,12.4,13.9,12.4,13.9l22,7c6.2,1.7,11.3,5.9,11.3,5.9c12.2,9.6,13.8,24,13.8,24
			c0.6,3.3,0.6,6.7,0.2,9.7c-0.6,5.5-2.1,9.6-2.1,9.6c-2.4,7.1-9.7,7.5-9.7,7.5c-9.5,0.7-11.7-8.6-11.7-8.6
			c-4.8-18.4-19.6-28.4-19.6-28.4c-21.4-16-44.8-9.5-44.8-9.5c-3.9-4.6-8.6-7-12.2-8.2c-3.1-1.1-5.3-1.3-5.3-1.3
			c-19.7-4.1-33,8.9-33,8.9C5,212.3,1.1,241.3,1.1,241.3c-1,6.1-1.2,11.9-1,17.2c0.9,18.4,7.7,31,7.7,31c13,24.7,35.7,20,35.7,20
			c6.1,12.3,15.9,20.7,15.9,20.7c11.9,11.2,20.6,16.1,24.1,17.8c0,0,0.1,0.1,0.2,0.1c0.9,0.5,1.4,0.6,1.4,0.6
			C84.3,346.3,83.9,344,83.6,341.8z"/>
	</g>
	<g>
		<path d="M287.6,224.9h-21.4v-14.3H325v14.3h-21.2v65.5h-16.2V224.9z"/>
		<path d="M334.7,288.8c-2.9-2-4.9-5.2-6.1-9.4c-1.2-4.2-1.8-9.9-1.8-16.9v-30.8h15.8v31c0,4.2,0.2,7.4,0.6,9.5
			c0.4,2.1,1.2,3.5,2.4,4.3c1.2,0.8,3.1,1.2,5.6,1.2c1.8,0,3.4-0.2,4.9-0.5c1.5-0.3,3.5-0.9,6.1-1.6v-43.9H378v58.7h-15.6v-3.3
			c-3.3,1.8-6.1,3-8.4,3.7c-2.3,0.7-4.8,1-7.4,1C341.5,291.8,337.6,290.8,334.7,288.8z"/>
		<path d="M394.2,289.7l-3.8-0.7l0.5-13.2c9.5,1.3,16.4,1.9,20.7,1.9c2.9,0,5.2-0.3,6.9-0.9c1.7-0.6,2.5-1.8,2.5-3.5
			c0-1.6-0.8-2.7-2.4-3.4c-1.6-0.7-4.3-1.4-8.1-2c-1.4-0.2-2.4-0.3-2.9-0.5c-3.9-0.7-7.1-1.6-9.6-2.6c-2.5-1.1-4.6-2.7-6.1-5
			c-1.6-2.3-2.4-5.5-2.4-9.7c0-6.7,2-11.6,6.1-14.8c4.1-3.2,9.7-4.8,16.8-4.8c4.2,0,10.5,0.7,18.7,2.2l3.9,0.7l-0.2,13
			c-9.5-1.3-16.5-1.9-21.1-1.9c-2.7,0-4.8,0.3-6.3,0.8c-1.5,0.5-2.3,1.6-2.3,3.2c0,1.6,0.8,2.8,2.4,3.5c1.6,0.7,4.1,1.3,7.6,1.9
			l4.1,0.7c6.3,1.3,10.7,3.1,13.4,5.6c2.7,2.5,4,6.4,4,11.9c0,6.7-1.9,11.7-5.8,14.9c-3.8,3.2-9.8,4.8-17.8,4.8
			C408,291.8,401.7,291.1,394.2,289.7z"/>
		<path d="M448.1,208.2h15.8v46.7l6-1.1l11.6-22.2h17.6l-15.3,27.8l16.1,30.9h-17.8l-11.9-22.9l-6.5,1.1v21.8h-15.8V208.2z"/>
	</g>
</g>
</svg>
