<?xml version="1.0" encoding="utf-8"?>
<!-- Generator: Adobe Illustrator 22.1.0, SVG Export Plug-In . SVG Version: 6.00 Build 0)  -->
<svg version="1.1" id="Capa_1" xmlns="http://www.w3.org/2000/svg" xmlns:xlink="http://www.w3.org/1999/xlink" x="0px" y="0px"
	 viewBox="0 0 38 38" style="enable-background:new 0 0 38 38;" xml:space="preserve">
<style type="text/css">
	.st0{fill:#7296FF;}
	.st1{fill:#FFFFFF;}
	.st2{fill:url(#SVGID_1_);}
</style>
<g>
	<path class="st0" d="M21.6,4.4c-0.3,0-0.6,0-0.9,0c0,0,0.2,0.3,0.7,0.6l4.5,1.6c0,0,3.5,1,5.3,4.4c0,0,1.5,2.2,1.3,5.5
		c0,0.6,0,1.3-0.1,2c0,0-0.4,3.6-3.1,5.9c0,0-1,1-2.7,1.7c0.8,0,1.7-0.2,2.7-0.7c0,0,2.4-1,3.1-4.4c0,0,0.1,0.7-0.1,1.7
		c0-0.1,0.1-0.2,0.1-0.4c0,0,0.3,2.9-1.8,5.2c0,0-1.4,1.8-3.8,2.3c0,0-2.4,0.6-4.5-0.4c0,0-2-1.1-4.7-0.1c0,0-2.2,0.9-3,2.6
		c0,0-0.6,0.9-0.8,2.4c0,0.4,0.1,0.7,0.2,1.1c0,0-0.1,0-0.2-0.1c2.3,1.2,4.9,1.9,7.7,1.9c9.1,0,16.4-7.3,16.4-16.4
		S30.6,4.4,21.6,4.4z"/>
	<path class="st0" d="M13,9.6c0,0,3.9-1.1,7.4,1.6c0,0,2.5,1.7,3.3,4.7c0,0,0.4,1.5,2,1.4c0,0,1.2-0.1,1.6-1.2c0,0,0.3-0.7,0.4-1.6
		c0-0.1,0-0.2,0-0.3c0,0-0.3-2.4-2.3-4c0,0-0.8-0.7-1.9-1l-3.7-1.2c0,0-2.1-0.6-2.1-3.1c0,0,0-0.1,0-0.2c-2.5,0.6-4.8,1.8-6.7,3.4
		C11.6,8.4,12.4,8.8,13,9.6z"/>
	<path class="st1" d="M17.6,5c0,2.4,2.1,3.1,2.1,3.1l3.7,1.2c1,0.3,1.9,1,1.9,1c2,1.6,2.3,4,2.3,4c0,0.1,0,0.2,0,0.3
		c0.1-0.5,0.1-1,0-1.6c0,0-0.3-2.4-2.3-4c0,0-0.8-0.7-1.9-1l-3.7-1.2c0,0-1.7-0.5-2.1-2.3c0,0.2-0.1,0.3-0.1,0.4
		C17.6,5,17.6,5,17.6,5z"/>
	<path class="st1" d="M26.9,28.4c0,0-2.4,0.6-4.5-0.4c0,0-2-1.1-4.7-0.1c0,0-2.2,0.9-3,2.6c0,0-1,1.5-0.8,3.7
		c0.2-1.4,0.8-2.4,0.8-2.4c0.8-1.7,3-2.6,3-2.6c2.7-1,4.7,0.1,4.7,0.1c2.2,1,4.5,0.4,4.5,0.4c2.4-0.6,3.8-2.3,3.8-2.3
		c2.1-2.3,1.8-5.2,1.8-5.2c0,0.1-0.1,0.2-0.1,0.4c-0.2,1-0.6,2.3-1.7,3.5C30.7,26.1,29.3,27.8,26.9,28.4z"/>
	<path class="st1" d="M29.4,22.9c0,0-2.1,2.1-5.6,2.5c0,0,1.2,0.6,2.9,0.6c1.7-0.7,2.7-1.7,2.7-1.7c2.7-2.3,3.1-5.9,3.1-5.9
		c0.1-0.7,0.1-1.4,0.1-2c0,0.2,0,0.4-0.1,0.6C32.5,17,32.1,20.6,29.4,22.9z"/>
	<linearGradient id="SVGID_1_" gradientUnits="userSpaceOnUse" x1="23.4241" y1="25.5035" x2="0.6262" y2="2.3278">
		<stop  offset="0" style="stop-color:#000000"/>
		<stop  offset="0.1462" style="stop-color:#040404"/>
		<stop  offset="0.3059" style="stop-color:#121212"/>
		<stop  offset="0.472" style="stop-color:#272727"/>
		<stop  offset="0.6414" style="stop-color:#464646"/>
		<stop  offset="0.6766" style="stop-color:#4D4D4D"/>
		<stop  offset="0.7203" style="stop-color:#565656"/>
		<stop  offset="0.7931" style="stop-color:#707070"/>
		<stop  offset="0.886" style="stop-color:#999999"/>
		<stop  offset="0.9826" style="stop-color:#CCCCCC"/>
	</linearGradient>
	<path class="st2" d="M13.9,34.2c-0.2-2.2,0.8-3.7,0.8-3.7c0.8-1.7,3-2.6,3-2.6c2.7-1,4.7,0.1,4.7,0.1c2.2,1,4.5,0.4,4.5,0.4
		c2.4-0.6,3.8-2.3,3.8-2.3c1.1-1.2,1.5-2.5,1.7-3.5c0.2-1,0.1-1.7,0.1-1.7c-0.8,3.4-3.1,4.4-3.1,4.4c-0.9,0.5-1.9,0.7-2.7,0.7
		c-1.7,0.1-2.9-0.6-2.9-0.6c3.5-0.4,5.6-2.5,5.6-2.5c2.7-2.3,3.1-5.9,3.1-5.9c0-0.2,0.1-0.4,0.1-0.6c0.2-3.2-1.3-5.5-1.3-5.5
		c-1.8-3.3-5.3-4.4-5.3-4.4L21.4,5c-0.5-0.2-0.7-0.5-0.7-0.6c0,0,0,0,0,0c0-0.1-0.1-0.1-0.1-0.2c-0.2-0.6-0.2-1.1,0-1.4
		C20.9,2.3,21.4,2,21.4,2l-1.5-1.2c-2.3,0.8-2.2,2.8-2.2,2.8c0,0.3,0,0.5,0.1,0.8c0.4,1.8,2.1,2.3,2.1,2.3l3.7,1.2
		c1,0.3,1.9,1,1.9,1c2,1.6,2.3,4,2.3,4c0.1,0.6,0.1,1.1,0,1.6c-0.1,0.9-0.4,1.6-0.4,1.6c-0.4,1.2-1.6,1.2-1.6,1.2
		c-1.6,0.1-2-1.4-2-1.4c-0.8-3.1-3.3-4.7-3.3-4.7C16.9,8.5,13,9.6,13,9.6c-0.6-0.8-1.4-1.2-2-1.4C10.5,8,10.1,8,10.1,8
		C6.8,7.3,4.6,9.5,4.6,9.5c-3.8,3.3-4.4,8.1-4.4,8.1c-0.2,1-0.2,2-0.2,2.9c0.2,3.1,1.3,5.1,1.3,5.1c2.2,4.1,5.9,3.3,5.9,3.3
		c1,2,2.6,3.4,2.6,3.4c2,1.9,3.4,2.7,4,3c0,0,0,0,0,0c0.2,0.1,0.2,0.1,0.2,0.1C14,35,13.9,34.6,13.9,34.2z"/>
</g>
</svg>
