<?xml version="1.0" encoding="utf-8"?>
<!-- Generator: Adobe Illustrator 22.1.0, SVG Export Plug-In . SVG Version: 6.00 Build 0)  -->
<svg version="1.1" id="Capa_1" xmlns="http://www.w3.org/2000/svg" xmlns:xlink="http://www.w3.org/1999/xlink" x="0px" y="0px"
	 viewBox="0 0 48 48" style="enable-background:new 0 0 48 48;" xml:space="preserve">
<style type="text/css">
	.st0{fill:#7296FF;}
	.st1{fill:#FFFFFF;}
	.st2{fill:url(#SVGID_1_);}
</style>
<g>
	<path class="st0" d="M27.2,5.5c-0.4,0-0.7,0-1.1,0c0,0.1,0.3,0.4,0.9,0.7l5.7,2c0,0,4.4,1.3,6.7,5.5c0,0,1.9,2.8,1.6,6.9
		c0.1,0.8,0,1.6-0.1,2.5c0,0-0.5,4.5-3.9,7.4c0,0-1.2,1.2-3.4,2.2c1,0,2.2-0.3,3.4-0.9c0,0,3-1.3,4-5.6c0,0,0.1,0.9-0.1,2.1
		c0-0.1,0.1-0.3,0.1-0.5c0,0,0.4,3.7-2.2,6.6c0,0-1.8,2.2-4.8,2.9c0,0-3,0.8-5.7-0.5c0,0-2.5-1.4-5.9-0.1c0,0-2.7,1.1-3.8,3.3
		c0,0-0.8,1.2-1,3c0.1,0.5,0.1,0.9,0.3,1.4c0,0-0.1,0-0.3-0.1c2.9,1.5,6.2,2.4,9.7,2.4c11.5,0,20.8-9.3,20.8-20.7S38.7,5.5,27.2,5.5
		z"/>
	<path class="st0" d="M16.4,12.1c0,0,4.9-1.4,9.4,2c0,0,3.1,2.1,4.1,6c0,0,0.5,2,2.5,1.8c0,0,1.5-0.1,2-1.6c0,0,0.3-0.9,0.4-2
		c0-0.1,0-0.2-0.1-0.3c0,0-0.3-3-2.9-5c0,0-1.1-0.9-2.4-1.2L25,10.2c0,0-2.7-0.8-2.7-3.9c0,0,0-0.1,0-0.2c-3.1,0.8-6,2.3-8.4,4.3
		C14.6,10.6,15.6,11.1,16.4,12.1z"/>
	<path class="st1" d="M22.3,6.3c0,3.1,2.7,3.9,2.7,3.9l4.6,1.5c1.3,0.4,2.4,1.2,2.4,1.2c2.6,2,2.9,5,2.9,5c0,0.1,0,0.2,0.1,0.3
		c0.1-0.6,0.1-1.3-0.1-2c0,0-0.3-3-2.9-5c0,0-1.1-0.9-2.4-1.2L25,8.5c0,0-2.1-0.6-2.6-2.9c-0.1,0.2-0.1,0.4-0.1,0.5
		C22.3,6.3,22.3,6.3,22.3,6.3z"/>
	<path class="st1" d="M33.9,35.9c0,0-3,0.8-5.7-0.5c0,0-2.5-1.4-5.9-0.1c0,0-2.7,1.1-3.8,3.3c0,0-1.3,1.9-1,4.7c0.2-1.8,1-3,1-3
		c1-2.1,3.8-3.3,3.8-3.3c3.4-1.3,5.9,0.1,5.9,0.1c2.7,1.2,5.7,0.5,5.7,0.5c3.1-0.7,4.8-2.9,4.8-2.9C41.4,31.7,41,28,41,28
		c0,0.2-0.1,0.3-0.1,0.5c-0.2,1.3-0.8,3-2.1,4.5C38.8,32.9,37,35.1,33.9,35.9z"/>
	<path class="st1" d="M37.1,28.9c0,0-2.6,2.7-7.1,3.1c0,0,1.5,0.8,3.6,0.7c2.2-0.9,3.4-2.2,3.4-2.2c3.4-2.9,3.9-7.4,3.9-7.4
		c0.1-0.9,0.1-1.7,0.1-2.5c0,0.3,0,0.5-0.1,0.8C41,21.5,40.5,26,37.1,28.9z"/>
	<linearGradient id="SVGID_1_" gradientUnits="userSpaceOnUse" x1="29.5883" y1="32.2149" x2="0.7909" y2="2.9403">
		<stop  offset="0" style="stop-color:#000000"/>
		<stop  offset="0.1462" style="stop-color:#040404"/>
		<stop  offset="0.3059" style="stop-color:#121212"/>
		<stop  offset="0.472" style="stop-color:#272727"/>
		<stop  offset="0.6414" style="stop-color:#464646"/>
		<stop  offset="0.6766" style="stop-color:#4D4D4D"/>
		<stop  offset="0.7203" style="stop-color:#565656"/>
		<stop  offset="0.7931" style="stop-color:#707070"/>
		<stop  offset="0.886" style="stop-color:#999999"/>
		<stop  offset="0.9826" style="stop-color:#CCCCCC"/>
	</linearGradient>
	<path class="st2" d="M17.6,43.3c-0.3-2.7,1-4.7,1-4.7c1-2.1,3.8-3.3,3.8-3.3c3.4-1.3,5.9,0.1,5.9,0.1c2.7,1.2,5.7,0.5,5.7,0.5
		c3.1-0.7,4.8-2.9,4.8-2.9c1.4-1.5,1.9-3.2,2.1-4.5c0.2-1.3,0.1-2.1,0.1-2.1c-0.9,4.3-4,5.6-4,5.6c-1.2,0.6-2.3,0.9-3.4,0.9
		c-2.1,0.1-3.6-0.7-3.6-0.7c4.4-0.5,7.1-3.1,7.1-3.1c3.4-2.9,3.9-7.4,3.9-7.4c0-0.3,0.1-0.5,0.1-0.8c0.3-4.1-1.6-6.9-1.6-6.9
		c-2.3-4.2-6.7-5.5-6.7-5.5l-5.7-2c-0.6-0.3-0.8-0.7-0.9-0.7c0,0,0,0,0,0C26.1,5.4,26,5.4,26,5.3c-0.3-0.7-0.2-1.3,0-1.8
		c0.3-0.6,0.9-1,0.9-1l-1.9-1.5c-2.9,1-2.8,3.6-2.8,3.6c0,0.3,0,0.7,0.1,0.9C22.8,7.9,25,8.5,25,8.5l4.6,1.5
		c1.3,0.4,2.4,1.2,2.4,1.2c2.6,2,2.9,5,2.9,5c0.1,0.7,0.1,1.4,0.1,2c-0.1,1.2-0.4,2-0.4,2c-0.5,1.5-2,1.6-2,1.6
		c-2,0.1-2.5-1.8-2.5-1.8c-1-3.9-4.1-6-4.1-6c-4.5-3.4-9.4-2-9.4-2c-0.8-1-1.8-1.5-2.6-1.7c-0.7-0.2-1.1-0.3-1.1-0.3
		C8.6,9.3,5.8,12,5.8,12C1,16.1,0.2,22.2,0.2,22.2C0,23.4,0,24.7,0,25.8c0.2,3.9,1.6,6.5,1.6,6.5c2.7,5.2,7.5,4.2,7.5,4.2
		c1.3,2.6,3.3,4.3,3.3,4.3c2.5,2.3,4.3,3.4,5.1,3.7c0,0,0,0,0,0c0.2,0.1,0.3,0.1,0.3,0.1C17.7,44.2,17.6,43.7,17.6,43.3z"/>
</g>
</svg>
