<?xml version="1.0" encoding="utf-8"?>
<!-- Generator: Adobe Illustrator 22.1.0, SVG Export Plug-In . SVG Version: 6.00 Build 0)  -->
<svg version="1.1" id="Capa_1" xmlns="http://www.w3.org/2000/svg" xmlns:xlink="http://www.w3.org/1999/xlink" x="0px" y="0px"
	 viewBox="0 0 16 16" style="enable-background:new 0 0 16 16;" xml:space="preserve">
<style type="text/css">
	.st0{fill:#7296FF;}
	.st1{fill:#FFFFFF;}
	.st2{fill:url(#SVGID_1_);}
</style>
<g>
	<path class="st0" d="M9.1,1.8c-0.1,0-0.2,0-0.4,0c0,0,0.1,0.1,0.3,0.2l1.9,0.7c0,0,1.5,0.4,2.2,1.8c0,0,0.6,0.9,0.5,2.3
		c0,0.3,0,0.5,0,0.8c0,0-0.2,1.5-1.3,2.5c0,0-0.4,0.4-1.1,0.7c0.3,0,0.7-0.1,1.1-0.3c0,0,1-0.4,1.3-1.9c0,0,0,0.3,0,0.7
		c0,0,0-0.1,0-0.2c0,0,0.1,1.2-0.7,2.2c0,0-0.6,0.7-1.6,1c0,0-1,0.3-1.9-0.2c0,0-0.8-0.5-2,0c0,0-0.9,0.4-1.3,1.1c0,0-0.3,0.4-0.3,1
		c0,0.2,0,0.3,0.1,0.5c0,0,0,0-0.1,0c1,0.5,2.1,0.8,3.2,0.8c3.8,0,6.9-3.1,6.9-6.9S12.9,1.8,9.1,1.8z"/>
	<path class="st0" d="M5.5,4c0,0,1.6-0.5,3.1,0.7c0,0,1,0.7,1.4,2c0,0,0.2,0.7,0.8,0.6c0,0,0.5,0,0.7-0.5c0,0,0.1-0.3,0.1-0.7
		c0,0,0-0.1,0-0.1c0,0-0.1-1-1-1.7c0,0-0.4-0.3-0.8-0.4L8.3,3.4c0,0-0.9-0.3-0.9-1.3c0,0,0,0,0-0.1c-1,0.3-2,0.8-2.8,1.4
		C4.9,3.5,5.2,3.7,5.5,4z"/>
	<path class="st1" d="M7.4,2.1c0,1,0.9,1.3,0.9,1.3l1.5,0.5c0.4,0.1,0.8,0.4,0.8,0.4c0.9,0.7,1,1.7,1,1.7c0,0,0,0.1,0,0.1
		c0-0.2,0-0.4,0-0.7c0,0-0.1-1-1-1.7c0,0-0.4-0.3-0.8-0.4L8.3,2.8c0,0-0.7-0.2-0.9-1C7.4,1.9,7.4,2,7.4,2.1C7.4,2.1,7.4,2.1,7.4,2.1
		z"/>
	<path class="st1" d="M11.3,12c0,0-1,0.3-1.9-0.2c0,0-0.8-0.5-2,0c0,0-0.9,0.4-1.3,1.1c0,0-0.4,0.6-0.3,1.6c0.1-0.6,0.3-1,0.3-1
		c0.3-0.7,1.3-1.1,1.3-1.1c1.1-0.4,2,0,2,0c0.9,0.4,1.9,0.2,1.9,0.2c1-0.2,1.6-1,1.6-1c0.9-1,0.7-2.2,0.7-2.2c0,0.1,0,0.1,0,0.2
		c-0.1,0.4-0.3,1-0.7,1.5C12.9,11,12.3,11.7,11.3,12z"/>
	<path class="st1" d="M12.4,9.6c0,0-0.9,0.9-2.4,1c0,0,0.5,0.3,1.2,0.2c0.7-0.3,1.1-0.7,1.1-0.7c1.1-1,1.3-2.5,1.3-2.5
		c0-0.3,0-0.6,0-0.8c0,0.1,0,0.2,0,0.3C13.7,7.2,13.5,8.7,12.4,9.6z"/>
	<linearGradient id="SVGID_1_" gradientUnits="userSpaceOnUse" x1="9.8628" y1="10.7383" x2="0.2636" y2="0.9801">
		<stop  offset="0" style="stop-color:#000000"/>
		<stop  offset="0.1462" style="stop-color:#040404"/>
		<stop  offset="0.3059" style="stop-color:#121212"/>
		<stop  offset="0.472" style="stop-color:#272727"/>
		<stop  offset="0.6414" style="stop-color:#464646"/>
		<stop  offset="0.6766" style="stop-color:#4D4D4D"/>
		<stop  offset="0.7203" style="stop-color:#565656"/>
		<stop  offset="0.7931" style="stop-color:#707070"/>
		<stop  offset="0.886" style="stop-color:#999999"/>
		<stop  offset="0.9826" style="stop-color:#CCCCCC"/>
	</linearGradient>
	<path class="st2" d="M5.9,14.4c-0.1-0.9,0.3-1.6,0.3-1.6c0.3-0.7,1.3-1.1,1.3-1.1c1.1-0.4,2,0,2,0c0.9,0.4,1.9,0.2,1.9,0.2
		c1-0.2,1.6-1,1.6-1c0.5-0.5,0.6-1.1,0.7-1.5c0.1-0.4,0-0.7,0-0.7c-0.3,1.4-1.3,1.9-1.3,1.9c-0.4,0.2-0.8,0.3-1.1,0.3
		c-0.7,0-1.2-0.2-1.2-0.2c1.5-0.2,2.4-1,2.4-1c1.1-1,1.3-2.5,1.3-2.5c0-0.1,0-0.2,0-0.3c0.1-1.4-0.5-2.3-0.5-2.3
		c-0.8-1.4-2.2-1.8-2.2-1.8L9,2.1C8.8,2,8.7,1.9,8.7,1.9c0,0,0,0,0,0c0,0,0-0.1,0-0.1c-0.1-0.2-0.1-0.4,0-0.6C8.8,1,9,0.8,9,0.8
		L8.4,0.4c-1,0.3-0.9,1.2-0.9,1.2c0,0.1,0,0.2,0,0.3c0.2,0.8,0.9,1,0.9,1l1.5,0.5c0.4,0.1,0.8,0.4,0.8,0.4c0.9,0.7,1,1.7,1,1.7
		c0,0.2,0,0.5,0,0.7c0,0.4-0.1,0.7-0.1,0.7c-0.2,0.5-0.7,0.5-0.7,0.5c-0.7,0-0.8-0.6-0.8-0.6c-0.3-1.3-1.4-2-1.4-2
		C7.1,3.6,5.5,4,5.5,4C5.2,3.7,4.9,3.5,4.6,3.5C4.4,3.4,4.2,3.4,4.2,3.4C2.9,3.1,1.9,4,1.9,4C0.3,5.4,0.1,7.4,0.1,7.4
		C0,7.8,0,8.2,0,8.6c0.1,1.3,0.5,2.2,0.5,2.2C1.5,12.5,3,12.2,3,12.2c0.4,0.9,1.1,1.4,1.1,1.4c0.8,0.8,1.4,1.1,1.7,1.2c0,0,0,0,0,0
		c0.1,0,0.1,0,0.1,0C5.9,14.7,5.9,14.6,5.9,14.4z"/>
</g>
</svg>
