<?xml version="1.0" encoding="utf-8"?>
<!-- Generator: Adobe Illustrator 22.1.0, SVG Export Plug-In . SVG Version: 6.00 Build 0)  -->
<svg version="1.1" id="Capa_1" xmlns="http://www.w3.org/2000/svg" xmlns:xlink="http://www.w3.org/1999/xlink" x="0px" y="0px"
	 viewBox="0 0 256 256" style="enable-background:new 0 0 256 256;" xml:space="preserve">
<style type="text/css">
	.st0{fill:#7296FF;}
	.st1{fill:#FFFFFF;}
	.st2{fill:url(#SVGID_1_);}
</style>
<g>
	<path class="st0" d="M145.2,29.5c-2,0-4,0.1-5.9,0.2c0.2,0.3,1.6,2.3,4.7,3.9l30.6,10.8c0,0,23.7,6.9,35.9,29.4
		c0,0,10.2,15.1,8.6,36.8c0.3,4.1,0.2,8.5-0.4,13.2c0,0-2.7,24.1-20.9,39.7c0,0-6.6,6.7-18.3,11.7c5.5-0.2,11.7-1.5,18-4.9
		c0,0,16.1-7,21.2-29.7c0,0,0.5,4.7-0.6,11.4c0.2-0.8,0.4-1.6,0.6-2.4c0,0,2.3,19.5-11.9,35.2c0,0-9.3,11.8-25.7,15.6
		c0,0-15.9,4-30.4-2.5c0,0-13.4-7.2-31.6-0.4c0,0-14.6,6-20.1,17.5c0,0-4.2,6.3-5.3,15.9c0.3,2.4,0.8,5,1.6,7.6c0,0-0.6-0.2-1.6-0.7
		c15.4,8.1,32.9,12.7,51.6,12.7c61.2,0,110.8-49.4,110.8-110.4S206.4,29.5,145.2,29.5z"/>
	<path class="st0" d="M87.6,64.6c0,0,26.2-7.3,50.2,10.7c0,0,16.6,11.2,22,31.7c0,0,2.5,10.4,13.2,9.6c0,0,8.1-0.4,10.8-8.4
		c0,0,1.7-4.6,2.4-10.8c-0.1-0.6-0.2-1.2-0.3-1.8c0,0-1.7-16.2-15.4-26.9c0,0-5.7-4.6-12.6-6.6l-24.7-7.8c0,0-14.4-4.1-14.4-20.6
		c0,0,0-0.4,0-1.2c-16.8,4.1-32.1,12-44.9,22.7C77.9,56.8,83.3,59.5,87.6,64.6z"/>
	<path class="st1" d="M118.7,33.8c0,16.5,14.4,20.6,14.4,20.6l24.7,7.8c6.9,1.9,12.6,6.6,12.6,6.6c13.7,10.7,15.4,26.9,15.4,26.9
		c0.1,0.6,0.2,1.2,0.3,1.8c0.4-3.3,0.4-7.1-0.3-10.8c0,0-1.7-16.2-15.4-26.9c0,0-5.7-4.6-12.6-6.6l-24.7-7.8c0,0-11.3-3.2-13.9-15.5
		c-0.3,1.1-0.4,2.1-0.5,2.8C118.7,33.4,118.7,33.8,118.7,33.8z"/>
	<path class="st1" d="M181,191.2c0,0-15.9,4-30.4-2.5c0,0-13.4-7.2-31.6-0.4c0,0-14.6,6-20.1,17.5c0,0-6.9,10.3-5.3,25
		c1.1-9.7,5.3-15.9,5.3-15.9c5.5-11.4,20.1-17.5,20.1-17.5c18.2-6.8,31.6,0.4,31.6,0.4c14.5,6.5,30.4,2.5,30.4,2.5
		c16.4-3.8,25.7-15.6,25.7-15.6c14.2-15.7,11.9-35.2,11.9-35.2c-0.2,0.8-0.4,1.6-0.6,2.4c-1.2,6.9-4.1,15.8-11.3,23.8
		C206.7,175.6,197.4,187.4,181,191.2z"/>
	<path class="st1" d="M197.8,154.4c0,0-14,14.2-37.7,16.7c0,0,8.1,4.3,19.3,3.9c11.8-5,18.3-11.7,18.3-11.7
		c18.2-15.6,20.9-39.7,20.9-39.7c0.7-4.7,0.7-9.1,0.4-13.2c-0.1,1.4-0.2,2.8-0.4,4.2C218.7,114.7,216,138.8,197.8,154.4z"/>
	<linearGradient id="SVGID_1_" gradientUnits="userSpaceOnUse" x1="157.8042" y1="171.8129" x2="4.2184" y2="15.6818">
		<stop  offset="0" style="stop-color:#000000"/>
		<stop  offset="0.1462" style="stop-color:#040404"/>
		<stop  offset="0.3059" style="stop-color:#121212"/>
		<stop  offset="0.472" style="stop-color:#272727"/>
		<stop  offset="0.6414" style="stop-color:#464646"/>
		<stop  offset="0.6766" style="stop-color:#4D4D4D"/>
		<stop  offset="0.7203" style="stop-color:#565656"/>
		<stop  offset="0.7931" style="stop-color:#707070"/>
		<stop  offset="0.886" style="stop-color:#999999"/>
		<stop  offset="0.9826" style="stop-color:#CCCCCC"/>
	</linearGradient>
	<path class="st2" d="M93.7,230.7c-1.6-14.6,5.3-25,5.3-25c5.5-11.4,20.1-17.5,20.1-17.5c18.2-6.8,31.6,0.4,31.6,0.4
		c14.5,6.5,30.4,2.5,30.4,2.5c16.4-3.8,25.7-15.6,25.7-15.6c7.2-7.9,10.2-16.9,11.3-23.8c1.1-6.7,0.6-11.4,0.6-11.4
		c-5.1,22.7-21.2,29.7-21.2,29.7c-6.3,3.5-12.5,4.7-18,4.9c-11.2,0.4-19.3-3.9-19.3-3.9c23.7-2.6,37.7-16.7,37.7-16.7
		c18.2-15.6,20.9-39.7,20.9-39.7c0.2-1.4,0.3-2.8,0.4-4.2c1.6-21.7-8.6-36.8-8.6-36.8c-12.2-22.5-35.9-29.4-35.9-29.4L144,33.5
		c-3.1-1.6-4.5-3.6-4.7-3.9c0,0,0,0,0,0c-0.3-0.5-0.5-1-0.7-1.5c-1.6-4-1-7.1,0.2-9.5c1.8-3.4,5-5.1,5-5.1l-10-7.8
		c-15.6,5.5-15.1,19.1-15.1,19.1c0,1.8,0.2,3.5,0.5,5.1c2.5,12.3,13.9,15.5,13.9,15.5l24.7,7.8c6.9,1.9,12.6,6.6,12.6,6.6
		c13.7,10.7,15.4,26.9,15.4,26.9c0.7,3.7,0.6,7.5,0.3,10.8c-0.7,6.2-2.4,10.8-2.4,10.8c-2.7,7.9-10.8,8.4-10.8,8.4
		c-10.6,0.8-13.2-9.6-13.2-9.6c-5.4-20.6-22-31.7-22-31.7c-24-17.9-50.2-10.7-50.2-10.7c-4.3-5.1-9.7-7.8-13.7-9.2
		c-3.5-1.2-6-1.4-6-1.4C45.8,49.4,31,63.9,31,63.9C5.6,85.8,1.2,118.2,1.2,118.2c-1.1,6.8-1.4,13.3-1.1,19.3
		c1,20.6,8.7,34.7,8.7,34.7c14.5,27.6,40,22.3,40,22.3c6.9,13.7,17.8,23.2,17.8,23.2c13.3,12.5,23.1,18,27,19.9
		c0.1,0,0.1,0.1,0.2,0.1c1,0.5,1.6,0.7,1.6,0.7C94.5,235.7,94,233.2,93.7,230.7z"/>
</g>
</svg>
