<?xml version="1.0" encoding="utf-8"?>
<!-- Generator: Adobe Illustrator 22.1.0, SVG Export Plug-In . SVG Version: 6.00 Build 0)  -->
<svg version="1.1" id="Capa_1" xmlns="http://www.w3.org/2000/svg" xmlns:xlink="http://www.w3.org/1999/xlink" x="0px" y="0px"
	 viewBox="0 0 64 64" style="enable-background:new 0 0 64 64;" xml:space="preserve">
<style type="text/css">
	.st0{fill:#7296FF;}
	.st1{fill:#FFFFFF;}
	.st2{fill:url(#SVGID_1_);}
</style>
<g>
	<path class="st0" d="M36.3,7.4c-0.5,0-1,0-1.5,0c0.1,0.1,0.4,0.6,1.2,1l7.7,2.7c0,0,5.9,1.7,9,7.4c0,0,2.5,3.8,2.2,9.2
		c0.1,1,0.1,2.1-0.1,3.3c0,0-0.7,6-5.2,9.9c0,0-1.6,1.7-4.6,2.9c1.4,0,2.9-0.4,4.5-1.2c0,0,4-1.7,5.3-7.4c0,0,0.1,1.2-0.1,2.9
		c0.1-0.2,0.1-0.4,0.1-0.6c0,0,0.6,4.9-3,8.8c0,0-2.3,3-6.4,3.9c0,0-4,1-7.6-0.6c0,0-3.3-1.8-7.9-0.1c0,0-3.7,1.5-5,4.4
		c0,0-1,1.6-1.3,4c0.1,0.6,0.2,1.2,0.4,1.9c0,0-0.1-0.1-0.4-0.2c3.9,2,8.2,3.2,12.9,3.2C51.6,62.6,64,50.2,64,35S51.6,7.4,36.3,7.4z
		"/>
	<path class="st0" d="M21.9,16.1c0,0,6.5-1.8,12.5,2.7c0,0,4.1,2.8,5.5,7.9c0,0,0.6,2.6,3.3,2.4c0,0,2-0.1,2.7-2.1
		c0,0,0.4-1.2,0.6-2.7c0-0.2,0-0.3-0.1-0.5c0,0-0.4-4-3.9-6.7c0,0-1.4-1.2-3.2-1.6l-6.2-2c0,0-3.6-1-3.6-5.1c0,0,0-0.1,0-0.3
		c-4.2,1-8,3-11.2,5.7C19.5,14.2,20.8,14.9,21.9,16.1z"/>
	<path class="st1" d="M29.7,8.4c0,4.1,3.6,5.1,3.6,5.1l6.2,2c1.7,0.5,3.2,1.6,3.2,1.6c3.4,2.7,3.9,6.7,3.9,6.7c0,0.2,0,0.3,0.1,0.5
		c0.1-0.8,0.1-1.8-0.1-2.7c0,0-0.4-4-3.9-6.7c0,0-1.4-1.2-3.2-1.6l-6.2-2c0,0-2.8-0.8-3.5-3.9c-0.1,0.3-0.1,0.5-0.1,0.7
		C29.7,8.3,29.7,8.4,29.7,8.4z"/>
	<path class="st1" d="M45.3,47.8c0,0-4,1-7.6-0.6c0,0-3.3-1.8-7.9-0.1c0,0-3.7,1.5-5,4.4c0,0-1.7,2.6-1.3,6.2c0.3-2.4,1.3-4,1.3-4
		c1.4-2.9,5-4.4,5-4.4c4.5-1.7,7.9,0.1,7.9,0.1c3.6,1.6,7.6,0.6,7.6,0.6c4.1-0.9,6.4-3.9,6.4-3.9c3.6-3.9,3-8.8,3-8.8
		c0,0.2-0.1,0.4-0.1,0.6c-0.3,1.7-1,4-2.8,5.9C51.7,43.9,49.4,46.9,45.3,47.8z"/>
	<path class="st1" d="M49.5,38.6c0,0-3.5,3.5-9.4,4.2c0,0,2,1.1,4.8,1c2.9-1.3,4.6-2.9,4.6-2.9c4.5-3.9,5.2-9.9,5.2-9.9
		c0.2-1.2,0.2-2.3,0.1-3.3c0,0.3-0.1,0.7-0.1,1.1C54.7,28.7,54,34.7,49.5,38.6z"/>
	<linearGradient id="SVGID_1_" gradientUnits="userSpaceOnUse" x1="39.4511" y1="42.9532" x2="1.0546" y2="3.9204">
		<stop  offset="0" style="stop-color:#000000"/>
		<stop  offset="0.1462" style="stop-color:#040404"/>
		<stop  offset="0.3059" style="stop-color:#121212"/>
		<stop  offset="0.472" style="stop-color:#272727"/>
		<stop  offset="0.6414" style="stop-color:#464646"/>
		<stop  offset="0.6766" style="stop-color:#4D4D4D"/>
		<stop  offset="0.7203" style="stop-color:#565656"/>
		<stop  offset="0.7931" style="stop-color:#707070"/>
		<stop  offset="0.886" style="stop-color:#999999"/>
		<stop  offset="0.9826" style="stop-color:#CCCCCC"/>
	</linearGradient>
	<path class="st2" d="M23.4,57.7c-0.4-3.7,1.3-6.2,1.3-6.2c1.4-2.9,5-4.4,5-4.4c4.5-1.7,7.9,0.1,7.9,0.1c3.6,1.6,7.6,0.6,7.6,0.6
		c4.1-0.9,6.4-3.9,6.4-3.9c1.8-2,2.5-4.2,2.8-5.9c0.3-1.7,0.1-2.9,0.1-2.9c-1.3,5.7-5.3,7.4-5.3,7.4c-1.6,0.9-3.1,1.2-4.5,1.2
		c-2.8,0.1-4.8-1-4.8-1c5.9-0.6,9.4-4.2,9.4-4.2c4.5-3.9,5.2-9.9,5.2-9.9c0-0.4,0.1-0.7,0.1-1.1c0.4-5.4-2.2-9.2-2.2-9.2
		c-3-5.6-9-7.4-9-7.4L36,8.4c-0.8-0.4-1.1-0.9-1.2-1c0,0,0,0,0,0c-0.1-0.1-0.1-0.3-0.2-0.4c-0.4-1-0.3-1.8,0.1-2.4
		C35.2,3.8,36,3.4,36,3.4l-2.5-2c-3.9,1.4-3.8,4.8-3.8,4.8c0,0.5,0,0.9,0.1,1.3c0.6,3.1,3.5,3.9,3.5,3.9l6.2,2
		c1.7,0.5,3.2,1.6,3.2,1.6c3.4,2.7,3.9,6.7,3.9,6.7c0.2,0.9,0.2,1.9,0.1,2.7c-0.2,1.5-0.6,2.7-0.6,2.7c-0.7,2-2.7,2.1-2.7,2.1
		c-2.7,0.2-3.3-2.4-3.3-2.4c-1.3-5.1-5.5-7.9-5.5-7.9c-6-4.5-12.5-2.7-12.5-2.7c-1.1-1.3-2.4-1.9-3.4-2.3c-0.9-0.3-1.5-0.4-1.5-0.4
		C11.5,12.3,7.8,16,7.8,16c-6.4,5.5-7.4,13.6-7.4,13.6C0,31.3,0,32.9,0,34.4C0.3,39.5,2.2,43,2.2,43c3.6,6.9,10,5.6,10,5.6
		c1.7,3.4,4.4,5.8,4.4,5.8c3.3,3.1,5.8,4.5,6.7,5c0,0,0,0,0,0c0.3,0.1,0.4,0.2,0.4,0.2C23.6,58.9,23.5,58.3,23.4,57.7z"/>
</g>
</svg>
